<svg width="1280" height="768" viewBox="0 0 1280 768" fill="none" xmlns="http://www.w3.org/2000/svg">
<rect width="1280" height="768" fill="white"/>
<mask id="mask0_35_20" style="mask-type:alpha" maskUnits="userSpaceOnUse" x="0" y="0" width="1280" height="768">
<rect width="1280" height="768" fill="white"/>
</mask>
<g mask="url(#mask0_35_20)">
<path d="M806.888 35.8033L651.616 71.5912L588.846 21.5352M588.846 21.5352L457.727 -83.0251L390.156 2.67642M588.846 21.5352L619.773 -22.1531L691.428 -111.879L876.664 -17.2656L837.915 146.535L726.949 152.739L590.663 190.926L607.702 342.236L550.368 406.457M588.846 21.5352L533.077 100.315L418.195 41.6366L390.156 2.67642M390.156 2.67642L326.019 84.0215M390.156 2.67642L335.77 -72.8907L456.939 -251.861M326.019 84.0215L210.627 230.376L391.427 424.907L314.797 574.935M326.019 84.0215L406.639 111.529L419.587 322.509L541.469 399.36L550.368 406.457M326.019 84.0215L274.199 66.3404L137.815 -40.376L325.987 -209.827L219.834 -295.488L61.5435 -116.389L163.964 143.66L58.8889 349.379L-36.4007 300.707L-215.981 485.214L-91.1294 606.814L82.0939 511.699L263.321 526.223L314.797 574.935M314.797 574.935L241.32 718.791L54.4767 681.185L-166.012 655.591L-204.825 800.831L-34.8055 896.655L142.57 864.858L225.966 944.51L243.194 1099.85L299.344 1149.3L364.171 943.236L304.648 895.99L268.8 773.812L458.802 677.723L606.098 450.899L550.368 406.457M314.797 574.935L352.268 610.395L496.164 467.174L550.368 406.457M-373.65 696.072L-98.6774 756.795L124.169 429.322L698.586 383.043L964.749 -14.9445M56.9999 49.9999L159.5 172L143.475 250.67M143.475 250.67L110 415L217.058 436.193M143.475 250.67L90.4999 243L-22.0001 220V12L141.5 -28L197.5 67.9999L293.5 172L420.5 87.9999L503.772 109.846M143.475 250.67L239 264.5V393.5L217.058 436.193M217.058 436.193L318.674 456.308M217.058 436.193L174.5 519L-40.0001 492.5M318.674 456.308L501.5 492.5L592.5 243H760.966M318.674 456.308L306.5 372L488.5 264.5L501.5 121L503.772 109.846M318.674 456.308L326.5 510.5L293.5 680.5L56.9999 590L28.9999 723.5L260.5 783L445.5 573.5H676.5V680.5L922.5 756.5L974 590L810.5 479L741 311L760.966 243M760.966 243H922.5L974 426.5L1051.5 634.5L1198.5 603L1206.5 408L1097.5 264.5L1130.5 154L1261 67.9999L1279.5 -4.50003L1066.5 31.4999L1051.5 106L959 193.5L787 67.9999L518 39.9999L503.772 109.846M760.966 243L775.5 193.5L582.5 130.5L503.772 109.846M1182 801L1111 528.5L718 479L415.5 -11.5L-60.0001 -67.5M1520.89 88.8033L1365.62 124.591L1302.85 74.5351M1302.85 74.5351L1171.73 -30.0251L1104.16 55.6764M1302.85 74.5351L1333.77 30.8469L1405.43 -58.8788L1590.66 35.7344L1551.92 199.535L1440.95 205.739L1304.66 243.926L1321.7 395.236L1264.37 459.457M1302.85 74.5351L1247.08 153.315L1132.2 94.6365L1104.16 55.6764M1104.16 55.6764L1040.02 137.021M1104.16 55.6764L1049.77 -19.8907L1170.94 -198.861M1040.02 137.021L924.627 283.376L1105.43 477.907L1028.8 627.935M1040.02 137.021L1120.64 164.529L1133.59 375.509L1255.47 452.36L1264.37 459.457M1040.02 137.021L988.199 119.34L851.815 12.6239L1039.99 -156.827L933.834 -242.488L775.544 -63.3887L877.964 196.66L772.889 402.379L677.599 353.707L498.019 538.214L622.871 659.814L796.094 564.699L977.321 579.223L1028.8 627.935M1028.8 627.935L955.32 771.791L768.477 734.185L547.988 708.591L509.175 853.831L679.195 949.655L856.57 917.858L939.966 997.51L957.194 1152.85L1013.34 1202.3L1078.17 996.236L1018.65 948.99L982.8 826.812L1172.8 730.723L1320.1 503.899L1264.37 459.457M1028.8 627.935L1066.27 663.395L1210.16 520.174L1264.37 459.457M340.35 749.072L615.323 809.795L838.17 482.322L1412.59 436.043L1678.75 38.0554" stroke="#52BFE1"/>
</g>
</svg>
