<svg width="25" height="24" viewBox="0 0 25 24" fill="none" xmlns="http://www.w3.org/2000/svg">
<path d="M1.46755 19.8119V3.66886C1.46755 2.45374 2.45374 1.46755 3.66886 1.46755H13.2079V0H2.93509C1.31345 0 0 1.31345 0 2.93509V20.5456C0 22.1673 1.31345 23.4807 2.93509 23.4807H13.2079V22.0132H3.66886C2.45227 22.0132 1.46755 21.027 1.46755 19.8119ZM24.7854 11.2209L19.5961 6.03161C19.31 5.74544 18.8447 5.74544 18.5586 6.03161C18.2724 6.31778 18.2724 6.78299 18.5586 7.06917L22.4945 11.0051H8.0715C7.66646 11.0051 7.33773 11.3339 7.33773 11.7389C7.33773 12.1439 7.66646 12.4727 8.0715 12.4727H22.4945L18.5586 16.4086C18.2724 16.6948 18.2724 17.16 18.5586 17.4462C18.8447 17.7323 19.31 17.7323 19.5961 17.4462L24.7854 12.2569C25.0715 11.9722 25.0715 11.5085 24.7854 11.2209Z" fill="black"/>
</svg>
