<svg width="25" height="25" viewBox="0 0 25 25" fill="none" xmlns="http://www.w3.org/2000/svg">
<g clip-path="url(#clip0_53_2)">
<path d="M26 0H-1V27H26V0Z" fill="white"/>
<path d="M1.51058 22V8.51741L5.91121 8.51738L6.13011 22H1.51058ZM3.82034 7.02487C2.9775 7.02487 2.2967 6.78441 1.77803 6.30348C1.25935 5.82255 1 5.22554 1 4.51244C1 3.79933 1.25935 3.20232 1.77803 2.72139C2.2967 2.24046 2.9775 2 3.82034 2C4.66319 2 5.34399 2.23217 5.86266 2.69652C6.38134 3.14428 6.64069 3.72471 6.64069 4.43781C6.64069 5.18408 6.38134 5.80597 5.86266 6.30348C5.36019 6.78441 4.6794 7.02487 3.82034 7.02487Z" fill="black"/>
<path d="M18.6755 8.2935C19.6966 8.2935 20.6043 8.50909 21.3985 8.94026C22.209 9.3549 22.8411 10.0016 23.2949 10.8806C23.765 11.7595 24 12.8955 24 14.2885V22H19.3806V15.0597C19.3806 14.0978 19.2023 13.4013 18.8457 12.9701C18.4891 12.5224 18.0028 12.2985 17.3869 12.2985C16.9493 12.2985 16.5522 12.4063 16.1956 12.6219C15.839 12.8375 15.5634 13.1691 15.3689 13.6169C15.1744 14.0481 15.0772 14.6119 15.0772 15.3084V22H10.4577V15.0597C10.4577 14.0978 10.2794 13.4013 9.92284 12.9701C9.58254 12.5224 9.09624 12.2985 8.46414 12.2985C8.01024 12.2985 7.60505 12.4063 7.24846 12.6219C6.90808 12.8375 6.63254 13.1691 6.42182 13.6169C6.22732 14.0481 6.13007 14.6119 6.13007 15.3084L6.13015 22H1.51062V8.51741L5.91125 8.51738V12.2736L5.03599 11.204C5.52225 10.2421 6.1868 9.5207 7.02965 9.0398C7.87249 8.54225 8.81264 8.2935 9.84994 8.2935C11.0331 8.2935 12.0705 8.60859 12.962 9.2388C13.8696 9.8524 14.4775 10.8142 14.7854 12.1244L13.278 11.801C13.7481 10.7064 14.4531 9.8524 15.3932 9.2388C16.3496 8.60859 17.4436 8.2935 18.6755 8.2935Z" fill="black"/>
<path d="M6 24V23.5V8" stroke="white"/>
</g>
<defs>
<clipPath id="clip0_53_2">
<rect width="25" height="25" fill="white"/>
</clipPath>
</defs>
</svg>
