<svg width="299" height="40" viewBox="0 0 299 40" fill="none" xmlns="http://www.w3.org/2000/svg">
<path d="M31.0887 1.15043V17.7801L22.6738 24.0739V7.43934H11.8219L20.2368 1.15043H31.0887ZM8.41488 9.99179L0 16.2856H10.8519V40L19.2716 33.7062V9.99179H8.41488Z" fill="url(#paint0_linear_8_136)"/>
<path d="M43.3359 0.624858C43.6513 0.624858 44.0575 0.620006 44.5592 0.610301C45.061 0.600596 45.5914 0.595743 46.1457 0.595743C46.7 0.595743 47.2399 0.59089 47.7608 0.581185C48.2816 0.57148 48.7213 0.566628 49.0797 0.566628C50.647 0.566628 51.9563 0.765582 53.0028 1.15864C54.0493 1.5517 54.8807 2.07092 55.4971 2.72116C56.1136 3.37141 56.5532 4.10899 56.816 4.93878C57.0788 5.76857 57.2078 6.61777 57.2078 7.48637C57.2078 8.39865 57.0454 9.27697 56.7204 10.1165C56.3955 10.956 55.9081 11.6984 55.263 12.3486C54.6131 12.9989 53.7912 13.5181 52.7973 13.9112C51.8034 14.3042 50.6374 14.5032 49.2995 14.5032C48.8598 14.5032 48.339 14.4935 47.7321 14.4692C47.1253 14.4498 46.5518 14.4158 46.0071 14.3722V22.9466H43.3359V0.624858ZM49.3281 3.10937C48.8885 3.10937 48.3533 3.11422 47.7273 3.12392C47.1014 3.13363 46.5232 3.15304 46.0023 3.17245V11.7809C46.5471 11.8246 47.0823 11.8585 47.6031 11.8925C48.124 11.9265 48.6592 11.941 49.2039 11.941C50.8381 11.941 52.1092 11.5431 53.0171 10.7473C53.925 9.95147 54.3838 8.84994 54.3838 7.44755C54.3838 6.10825 53.9824 5.05039 53.1748 4.27398C52.3672 3.49757 51.0866 3.10937 49.3281 3.10937ZM60.9111 0.624858C61.2265 0.624858 61.6757 0.620006 62.2587 0.610301C62.8464 0.600596 63.4533 0.595743 64.0793 0.595743C64.7052 0.595743 65.2787 0.59089 65.79 0.581185C66.3013 0.57148 66.6405 0.566628 66.8126 0.566628C68.3178 0.566628 69.5697 0.74132 70.5636 1.0907C71.5576 1.44009 72.3556 1.92049 72.9624 2.52706C73.5693 3.13363 73.9994 3.83725 74.2478 4.64763C74.5011 5.45315 74.6253 6.3072 74.6253 7.19522C74.6253 8.06868 74.4868 8.85479 74.2144 9.55356C73.942 10.2572 73.5836 10.8735 73.1392 11.4024C72.6948 11.9313 72.1835 12.3778 71.6054 12.7417C71.0272 13.1056 70.4299 13.358 69.8182 13.5084L77.1627 22.9418H73.899L67.1518 14.0179H63.5727V22.9418H60.9111V0.624858ZM66.6549 3.10937C66.2965 3.10937 65.8282 3.11422 65.2404 3.12392C64.6527 3.13363 64.0984 3.15304 63.5775 3.17245V11.4606H66.8126C67.4385 11.4606 68.055 11.3636 68.6666 11.1743C69.2735 10.9851 69.8086 10.7036 70.2674 10.33C70.7261 9.95633 71.0988 9.50989 71.3808 8.99067C71.6627 8.47144 71.806 7.87943 71.806 7.21948C71.806 6.64688 71.72 6.10825 71.5528 5.60843C71.3855 5.10862 71.0988 4.67189 70.6879 4.3031C70.2817 3.92945 69.7465 3.6383 69.0871 3.42478C68.4277 3.21612 67.6153 3.10937 66.6549 3.10937ZM80.6175 0.624858H83.2839V22.9369H80.6175V0.624858ZM89.3956 0.624858H89.7731C90.1267 0.624858 90.5376 0.620006 90.9964 0.610301C91.4551 0.600596 91.9377 0.59089 92.4395 0.576333C92.9412 0.566628 93.4477 0.556923 93.9638 0.542365C94.4751 0.53266 94.9529 0.527807 95.3926 0.527807C97.5907 0.527807 99.4686 0.823813 101.026 1.42068C102.584 2.01754 103.86 2.81821 104.854 3.82755C105.848 4.83688 106.574 6.00149 107.038 7.31653C107.496 8.63643 107.731 10.0243 107.731 11.4946C107.731 13.0862 107.468 14.5808 106.947 15.9735C106.426 17.3662 105.633 18.5842 104.577 19.6226C103.521 20.6659 102.207 21.486 100.639 22.0926C99.072 22.6991 97.237 23 95.1489 23C94.4178 23 93.5672 22.9903 92.6067 22.966C91.6462 22.9466 90.6906 22.9321 89.7492 22.9321H89.4051V0.624858H89.3956ZM95.3304 3.0754C94.6615 3.0754 94.0833 3.0851 93.6054 3.10937C93.1228 3.12878 92.6115 3.15304 92.0667 3.17245V20.3845C92.7979 20.4039 93.4621 20.4233 94.0594 20.433C94.6567 20.4427 95.0485 20.4476 95.2349 20.4476C96.8022 20.4476 98.188 20.2243 99.3921 19.7779C100.596 19.3315 101.605 18.7103 102.422 17.9145C103.239 17.1187 103.855 16.1724 104.276 15.0758C104.696 13.9839 104.902 12.7854 104.902 11.4897C104.902 10.2766 104.701 9.15565 104.304 8.12691C103.908 7.09817 103.306 6.21015 102.498 5.46771C101.691 4.72527 100.692 4.13811 99.502 3.71594C98.3122 3.28891 96.9217 3.0754 95.3304 3.0754ZM112.084 0.624858H124.484V3.17245H114.755V10.3785H123.543V12.9309H114.755V20.3893H124.799V22.9369H112.089V0.624858H112.084ZM138.929 11.5868L146.995 22.9321H143.827L137.171 13.6588L130.581 22.9321H127.413L135.479 11.5868L127.757 0.624858H130.925L137.266 9.54871L143.545 0.624858H146.713L138.929 11.5868Z" fill="#607D8D"/>
<path d="M158.531 23H157.571V0.599997H158.531V23Z" fill="#607D8D"/>
<path d="M172.112 1.496H163.44V0.599997H181.712V1.496H173.04V23H172.112V1.496Z" fill="#607D8D"/>
<path d="M204.368 17.56C204.368 16.6213 204.144 15.8 203.696 15.096C203.248 14.392 202.661 13.8373 201.936 13.432C201.232 13.0267 200.453 12.664 199.6 12.344C198.746 12.0027 197.882 11.6613 197.008 11.32C196.154 10.9787 195.365 10.5947 194.64 10.168C193.936 9.72 193.36 9.12266 192.912 8.376C192.464 7.62933 192.24 6.744 192.24 5.72C192.24 4.12 192.816 2.81866 193.968 1.816C195.12 0.81333 196.677 0.311996 198.64 0.311996C199.834 0.311996 200.954 0.514663 202 0.919996C203.045 1.32533 203.888 1.88 204.528 2.584L203.984 3.256C202.682 1.912 200.89 1.24 198.608 1.24C196.965 1.24 195.653 1.656 194.672 2.488C193.712 3.29866 193.232 4.376 193.232 5.72C193.232 6.808 193.53 7.71466 194.128 8.44C194.405 8.80266 194.768 9.13333 195.216 9.432C195.664 9.73066 196.016 9.944 196.272 10.072C196.549 10.2 197.072 10.4133 197.84 10.712C198.608 11.0107 199.088 11.2027 199.28 11.288C200.709 11.8427 201.69 12.248 202.224 12.504C203.162 12.9307 203.92 13.5813 204.496 14.456C205.072 15.3307 205.36 16.3547 205.36 17.528C205.36 19.256 204.688 20.6533 203.344 21.72C202.042 22.7653 200.378 23.288 198.352 23.288C197.05 23.288 195.738 23 194.416 22.424C193.093 21.8267 192.165 21.0587 191.632 20.12L192.24 19.48C192.88 20.3333 193.765 21.0373 194.896 21.592C196.048 22.104 197.178 22.36 198.288 22.36C199.973 22.36 201.402 21.944 202.576 21.112C203.77 20.2373 204.368 19.0533 204.368 17.56Z" fill="#607D8D"/>
<path d="M221.071 8.6H221.967V23H221.071V20.504C220.431 21.2933 219.567 21.9547 218.479 22.488C217.412 23.0213 216.345 23.288 215.279 23.288C211.481 23.288 209.583 21.1227 209.583 16.792V8.6H210.511V16.568C210.511 18.552 210.916 20.024 211.727 20.984C212.559 21.944 213.839 22.424 215.567 22.424C216.655 22.424 217.711 22.136 218.735 21.56C219.759 20.9413 220.537 20.28 221.071 19.576V8.6Z" fill="#607D8D"/>
<path d="M228.331 29.4H227.403V8.6H228.331V10.712C228.907 10.008 229.707 9.432 230.731 8.984C231.755 8.536 232.8 8.312 233.867 8.312C235.979 8.312 237.643 8.984 238.859 10.328C240.096 11.6507 240.715 13.4 240.715 15.576C240.715 17.816 240.032 19.6613 238.667 21.112C237.323 22.5627 235.563 23.288 233.387 23.288C231.296 23.288 229.611 22.808 228.331 21.848V29.4ZM233.675 9.176C232.629 9.176 231.605 9.41066 230.603 9.88C229.6 10.3493 228.843 10.9253 228.331 11.608V20.888C229.781 21.912 231.456 22.424 233.355 22.424C235.232 22.424 236.768 21.7947 237.963 20.536C239.157 19.2773 239.755 17.656 239.755 15.672C239.755 13.688 239.211 12.1093 238.123 10.936C237.056 9.76266 235.573 9.176 233.675 9.176Z" fill="#607D8D"/>
<path d="M245.987 29.4H245.059V8.6H245.987V10.712C246.563 10.008 247.363 9.432 248.387 8.984C249.411 8.536 250.456 8.312 251.523 8.312C253.635 8.312 255.299 8.984 256.515 10.328C257.752 11.6507 258.371 13.4 258.371 15.576C258.371 17.816 257.688 19.6613 256.323 21.112C254.979 22.5627 253.219 23.288 251.043 23.288C248.952 23.288 247.267 22.808 245.987 21.848V29.4ZM251.331 9.176C250.286 9.176 249.262 9.41066 248.259 9.88C247.256 10.3493 246.499 10.9253 245.987 11.608V20.888C247.438 21.912 249.112 22.424 251.011 22.424C252.888 22.424 254.424 21.7947 255.619 20.536C256.814 19.2773 257.411 17.656 257.411 15.672C257.411 13.688 256.867 12.1093 255.779 10.936C254.712 9.76266 253.23 9.176 251.331 9.176Z" fill="#607D8D"/>
<path d="M263.739 21.176C262.353 19.7467 261.659 17.9547 261.659 15.8C261.659 13.6453 262.353 11.8533 263.739 10.424C265.126 9.016 266.907 8.312 269.083 8.312C271.259 8.312 273.041 9.016 274.427 10.424C275.835 11.832 276.539 13.624 276.539 15.8C276.539 17.976 275.835 19.768 274.427 21.176C273.041 22.584 271.259 23.288 269.083 23.288C266.907 23.288 265.126 22.584 263.739 21.176ZM269.083 9.176C267.185 9.176 265.627 9.79466 264.411 11.032C263.195 12.2693 262.587 13.8587 262.587 15.8C262.587 17.7413 263.195 19.3307 264.411 20.568C265.627 21.8053 267.185 22.424 269.083 22.424C270.982 22.424 272.539 21.8053 273.755 20.568C274.971 19.3307 275.579 17.7413 275.579 15.8C275.579 13.8587 274.971 12.2693 273.755 11.032C272.539 9.79466 270.982 9.176 269.083 9.176Z" fill="#607D8D"/>
<path d="M281.862 23H280.934V8.6H281.862V10.68C282.843 9.12266 284.198 8.344 285.926 8.344C286.929 8.344 287.675 8.52533 288.166 8.888L287.878 9.752C287.259 9.38933 286.566 9.208 285.798 9.208C284.219 9.208 282.907 10.0507 281.862 11.736V23Z" fill="#607D8D"/>
<path d="M290.864 17.528V4.6H291.792V8.6H298V9.464H291.792V17.24C291.792 18.968 292.08 20.248 292.656 21.08C293.253 21.8907 294.213 22.296 295.536 22.296C296.411 22.296 297.189 22.04 297.872 21.528L298.256 22.264C297.403 22.8613 296.443 23.16 295.376 23.16C293.819 23.16 292.677 22.7013 291.952 21.784C291.227 20.8453 290.864 19.4267 290.864 17.528Z" fill="#607D8D"/>
<defs>
<linearGradient id="paint0_linear_8_136" x1="109.836" y1="7.25993" x2="112.34" y2="37.4875" gradientUnits="userSpaceOnUse">
<stop stop-color="#0075DF"/>
<stop offset="0.3053" stop-color="#0095E4"/>
<stop offset="0.6733" stop-color="#00C2FF"/>
<stop offset="1" stop-color="#00F3FF"/>
</linearGradient>
</defs>
</svg>
